HIERARCHY
ROOT Hips
{
	OFFSET 44.605000 4.658186 84.108704
	CHANNELS 6 Xposition Yposition Zposition Xrotation Yrotation Zrotation
	JOINT spine
	{
		OFFSET 0.000000 -0.359108 6.244797
		CHANNELS 3 Xrotation Yrotation Zrotation
		JOINT spine1
		{
			OFFSET 0.000000 -0.000001 9.069412
			CHANNELS 3 Xrotation Yrotation Zrotation
			JOINT spine2
			{
				OFFSET 0.000000 -0.000001 8.690140
				CHANNELS 3 Xrotation Yrotation Zrotation
				JOINT Neck
				{
					OFFSET 0.000000 -1.063724 22.311203
					CHANNELS 3 Xrotation Yrotation Zrotation
					JOINT Head
					{
						OFFSET 0.000000 -0.000001 6.740814
						CHANNELS 3 Xrotation Yrotation Zrotation
						End Site
						{
							OFFSET 0.000000 5.380967 16.316498
						}
					}
				}
				JOINT RightShoulder
				{
					OFFSET -3.659161 0.509512 9.384682
					CHANNELS 3 Xrotation Yrotation Zrotation
					JOINT RightArm
					{
						OFFSET 0.000000 -0.000002 12.308907
						CHANNELS 3 Xrotation Yrotation Zrotation
						JOINT RightArmRoll
						{
							OFFSET 0.000000 -0.000001 6.213745
							CHANNELS 3 Xrotation Yrotation Zrotation
							JOINT RightForeArm
							{
								OFFSET 0.000000 -0.000003 18.098495
								CHANNELS 3 Xrotation Yrotation Zrotation
								JOINT RightForeArmRoll
								{
									OFFSET 0.000000 -0.000001 6.972794
									CHANNELS 3 Xrotation Yrotation Zrotation
									JOINT RightHand
									{
										OFFSET 0.000000 -0.000002 13.992905
										CHANNELS 3 Xrotation Yrotation Zrotation
										End Site
										{
											OFFSET 0.000000 0.000000 0.100006
										}
									}
								}
							}
						}
					}
				}
				JOINT LeftShoulder
				{
					OFFSET 3.659161 0.509512 9.384682
					CHANNELS 3 Xrotation Yrotation Zrotation
					JOINT LeftArm
					{
						OFFSET 0.000000 -0.000002 12.308907
						CHANNELS 3 Xrotation Yrotation Zrotation
						JOINT LeftArmRoll
						{
							OFFSET 0.000000 -0.000001 6.213745
							CHANNELS 3 Xrotation Yrotation Zrotation
							JOINT LeftForeArm
							{
								OFFSET 0.000000 -0.000003 18.098495
								CHANNELS 3 Xrotation Yrotation Zrotation
								JOINT LeftForeArmRoll
								{
									OFFSET 0.000000 -0.000001 6.972794
									CHANNELS 3 Xrotation Yrotation Zrotation
									JOINT LeftHand
									{
										OFFSET 0.000000 -0.000002 13.992905
										CHANNELS 3 Xrotation Yrotation Zrotation
										End Site
										{
											OFFSET 0.000000 0.000000 0.100006
										}
									}
								}
							}
						}
					}
				}
			}
		}
	}
	JOINT RightUpLeg
	{
		OFFSET -5.535160 0.851455 -1.014999
		CHANNELS 3 Xrotation Yrotation Zrotation
		JOINT RightUpLegRoll
		{
			OFFSET 0.000000 -0.000003 16.407501
			CHANNELS 3 Xrotation Yrotation Zrotation
			JOINT RightLeg
			{
				OFFSET 0.000000 0.000003 -20.318100
				CHANNELS 3 Xrotation Yrotation Zrotation
				JOINT RightLegRoll
				{
					OFFSET 0.000000 -0.000003 20.384598
					CHANNELS 3 Xrotation Yrotation Zrotation
					JOINT RightFoot
					{
						OFFSET 0.000000 -0.000003 16.966797
						CHANNELS 3 Xrotation Yrotation Zrotation
						JOINT RightToeBase
						{
							OFFSET 0.000000 -0.000002 14.183395
							CHANNELS 3 Xrotation Yrotation Zrotation
							End Site
							{
								OFFSET 0.006012 0.791744 6.868896
							}
						}
					}
				}
			}
		}
	}
	JOINT LeftUpLeg
	{
		OFFSET 5.535160 0.851455 -1.014999
		CHANNELS 3 Xrotation Yrotation Zrotation
		JOINT LeftUpLegRoll
		{
			OFFSET 0.000000 -0.000003 16.407600
			CHANNELS 3 Xrotation Yrotation Zrotation
			JOINT LeftLeg
			{
				OFFSET 0.000000 -0.000003 20.318100
				CHANNELS 3 Xrotation Yrotation Zrotation
				JOINT LeftLegRoll
				{
					OFFSET 0.000000 -0.000003 20.573097
					CHANNELS 3 Xrotation Yrotation Zrotation
					JOINT LeftFoot
					{
						OFFSET 0.000000 -0.000003 16.778305
						CHANNELS 3 Xrotation Yrotation Zrotation
						JOINT LeftToeBase
						{
							OFFSET 0.000000 -0.000002 14.183395
							CHANNELS 3 Xrotation Yrotation Zrotation
							End Site
							{
								OFFSET -0.026943 0.791745 6.868896
							}
						}
					}
				}
			}
		}
	}
}
MOTION
Frames: 4
Frame Time: 0.041667
43.655998 10.364788 83.502205 3.448259 -0.366361 -1.646675 -1.120870 0.111996 -0.014008 1.761133 0.224196 -0.044732 3.406227 0.223644 -0.047414 4.082293 -3.760633 -0.454417 0.626267 1.695549 0.073494 -4.114773 -65.530590 -5.428724 -30.652779 -110.449343 -20.242772 -0.000001 -0.000007 -0.000002 9.950244 -10.286739 0.397980 0.000002 0.000002 -3.000000 -5.000200 -7.998772 0.000161 -14.730331 59.841917 17.404541 -13.018384 114.913179 -2.876730 -0.000010 -0.000002 -0.000002 18.080931 3.225462 0.011869 0.000000 -0.000002 2.999998 -5.000251 7.999689 -0.000059 -11.339488 -176.946665 -0.262742 -179.999991 0.000005 -0.844999 161.703964 -0.568723 -1.255034 0.000001 -0.000001 0.274078 74.611832 5.929618 4.595095 25.456812 -7.353251 -0.000165 -6.628681 174.662704 -2.168356 -0.000005 -0.000004 -1.006700 -19.601137 0.109177 0.855912 -0.000002 0.000002 -0.908242 79.151183 -6.545551 -2.396422 26.012296 7.346412 -0.808571 
43.646004 10.355684 83.494110 3.452421 -0.369379 -1.627346 -1.119812 0.111102 -0.015002 1.763293 0.222411 -0.045447 3.408385 0.221851 -0.048108 4.085122 -3.737686 -0.453948 0.595229 1.701918 0.068558 -4.107750 -65.509847 -5.418791 -30.627873 -110.509777 -20.256102 -0.000000 -0.000006 -0.000001 9.975914 -10.299550 0.400747 0.000003 0.000002 -3.000001 -5.000200 -7.998772 0.000162 -14.699103 59.865112 17.368264 -13.110439 114.949816 -2.741719 -0.000010 -0.000002 -0.000001 18.119899 3.241727 0.008845 0.000000 -0.000002 2.999998 -5.000252 7.999688 -0.000059 -11.405760 -176.967961 -0.305615 -179.999991 0.000005 -0.849001 161.553167 -0.501826 -1.250392 0.000001 -0.000001 0.288133 74.711287 5.952424 4.526922 25.456515 -7.353250 -0.000612 -6.699765 174.664480 -2.162572 -0.000005 -0.000005 -1.008300 -19.733832 0.102841 0.854864 -0.000003 0.000001 -0.912564 79.164666 -6.544810 -2.400175 26.032294 7.346310 -0.837445 
43.681404 10.399986 83.467697 3.456112 -0.373093 -1.607868 -1.118693 0.110290 -0.016059 1.765593 0.220791 -0.046239 3.410685 0.220221 -0.048881 4.088791 -3.713850 -0.453474 0.563513 1.707618 0.063489 -4.101022 -65.487990 -5.409098 -30.601283 -110.570968 -20.267473 -0.000001 -0.000007 -0.000002 10.001316 -10.311970 0.403417 0.000001 0.000002 -3.000000 -5.000199 -7.998773 0.000162 -14.667153 59.889277 17.331158 -13.201347 114.985415 -2.608701 -0.000010 -0.000002 -0.000000 18.158770 3.257879 0.005802 -0.000000 -0.000001 3.000002 -5.000252 7.999688 -0.000059 -11.470125 -176.989244 -0.349395 -179.999991 0.000005 -0.853004 161.406044 -0.433149 -1.245715 0.000000 -0.000001 0.302044 74.809081 5.974827 4.459142 25.456106 -7.353247 -0.001276 -6.767736 174.666215 -2.156359 -0.000005 -0.000004 -1.009990 -19.861630 0.096743 0.853760 -0.000002 0.000001 -0.916558 79.175771 -6.544169 -2.403571 26.052493 7.346213 -0.866526 
43.669106 10.387985 83.448410 3.459466 -0.377292 -1.588292 -1.117520 0.109537 -0.017160 1.768003 0.219287 -0.047086 3.413095 0.218707 -0.049709 4.093036 -3.689373 -0.453000 0.531320 1.712846 0.058326 -4.094510 -65.465437 -5.399581 -30.573023 -110.632932 -20.276938 -0.000000 -0.000006 -0.000001 10.026532 -10.324199 0.406043 0.000001 0.000001 -3.000001 -5.000201 -7.998773 0.000162 -14.634604 59.914023 17.293388 -13.291052 115.020987 -2.477418 -0.000010 -0.000002 -0.000002 18.197639 3.273956 0.002748 0.000001 -0.000002 3.000000 -5.000250 7.999689 -0.000059 -11.533099 -177.009516 -0.394005 -179.999991 0.000005 -0.857006 161.261408 -0.363648 -1.240364 0.000000 -0.000001 0.315854 74.905701 5.996960 4.391252 25.455499 -7.353247 -0.002111 -6.833492 174.669903 -2.150101 -0.000005 -0.000005 -1.011740 -19.986023 0.090810 0.852610 -0.000002 0.000001 -0.920323 79.185006 -6.543740 -2.406897 26.072690 7.346114 -0.895746 
